<mxfile host="app.diagrams.net" agent="Mozilla/5.0 (Windows NT 10.0; Win64; x64) AppleWebKit/537.36 (KHTML, like Gecko) Chrome/134.0.0.0 Safari/537.36" version="26.1.3" pages="2">
  <diagram id="h0hcmu9Mvu_UAkecFQEm" name="ERD">
    <mxGraphModel dx="2924" dy="1106" grid="1" gridSize="10" guides="1" tooltips="1" connect="1" arrows="1" fold="1" page="1" pageScale="1" pageWidth="850" pageHeight="1100" math="0" shadow="0">
      <root>
        <mxCell id="0" />
        <mxCell id="1" parent="0" />
        <mxCell id="QIbgbbybD2uV7bNP2A2N-1" value="User" style="whiteSpace=wrap;html=1;align=center;" vertex="1" parent="1">
          <mxGeometry x="-210" y="340" width="100" height="40" as="geometry" />
        </mxCell>
        <mxCell id="QIbgbbybD2uV7bNP2A2N-4" value="id" style="ellipse;whiteSpace=wrap;html=1;align=center;fontStyle=4;" vertex="1" parent="1">
          <mxGeometry x="-340" y="260" width="100" height="40" as="geometry" />
        </mxCell>
        <mxCell id="QIbgbbybD2uV7bNP2A2N-7" value="username" style="ellipse;whiteSpace=wrap;html=1;align=center;" vertex="1" parent="1">
          <mxGeometry x="-280" y="210" width="100" height="40" as="geometry" />
        </mxCell>
        <mxCell id="QIbgbbybD2uV7bNP2A2N-8" value="Has" style="shape=rhombus;perimeter=rhombusPerimeter;whiteSpace=wrap;html=1;align=center;" vertex="1" parent="1">
          <mxGeometry x="-190" y="560" width="120" height="60" as="geometry" />
        </mxCell>
        <mxCell id="QIbgbbybD2uV7bNP2A2N-9" value="Exist" style="shape=rhombus;perimeter=rhombusPerimeter;whiteSpace=wrap;html=1;align=center;" vertex="1" parent="1">
          <mxGeometry x="240" y="620" width="120" height="60" as="geometry" />
        </mxCell>
        <mxCell id="QIbgbbybD2uV7bNP2A2N-10" value="" style="endArrow=none;html=1;rounded=0;" edge="1" parent="1" source="QIbgbbybD2uV7bNP2A2N-4" target="QIbgbbybD2uV7bNP2A2N-1">
          <mxGeometry relative="1" as="geometry">
            <mxPoint x="-470" y="480" as="sourcePoint" />
            <mxPoint x="-310" y="480" as="targetPoint" />
          </mxGeometry>
        </mxCell>
        <mxCell id="QIbgbbybD2uV7bNP2A2N-11" value="" style="endArrow=none;html=1;rounded=0;" edge="1" parent="1" source="QIbgbbybD2uV7bNP2A2N-7" target="QIbgbbybD2uV7bNP2A2N-1">
          <mxGeometry relative="1" as="geometry">
            <mxPoint x="-80" y="298" as="sourcePoint" />
            <mxPoint x="-16" y="350" as="targetPoint" />
          </mxGeometry>
        </mxCell>
        <mxCell id="QIbgbbybD2uV7bNP2A2N-12" value="email" style="ellipse;whiteSpace=wrap;html=1;align=center;" vertex="1" parent="1">
          <mxGeometry x="-350" y="460" width="100" height="40" as="geometry" />
        </mxCell>
        <mxCell id="QIbgbbybD2uV7bNP2A2N-13" value="" style="endArrow=none;html=1;rounded=0;" edge="1" parent="1" source="QIbgbbybD2uV7bNP2A2N-12" target="QIbgbbybD2uV7bNP2A2N-1">
          <mxGeometry relative="1" as="geometry">
            <mxPoint x="-120" y="553" as="sourcePoint" />
            <mxPoint x="-191" y="595" as="targetPoint" />
          </mxGeometry>
        </mxCell>
        <mxCell id="QIbgbbybD2uV7bNP2A2N-21" value="last_name" style="ellipse;whiteSpace=wrap;html=1;align=center;" vertex="1" parent="1">
          <mxGeometry x="-270" y="490" width="100" height="40" as="geometry" />
        </mxCell>
        <mxCell id="QIbgbbybD2uV7bNP2A2N-22" value="" style="endArrow=none;html=1;rounded=0;" edge="1" parent="1" source="QIbgbbybD2uV7bNP2A2N-21" target="QIbgbbybD2uV7bNP2A2N-1">
          <mxGeometry relative="1" as="geometry">
            <mxPoint x="-110" y="563" as="sourcePoint" />
            <mxPoint x="-181" y="605" as="targetPoint" />
          </mxGeometry>
        </mxCell>
        <mxCell id="QIbgbbybD2uV7bNP2A2N-23" value="is_staff" style="ellipse;whiteSpace=wrap;html=1;align=center;" vertex="1" parent="1">
          <mxGeometry x="-420" y="420" width="100" height="40" as="geometry" />
        </mxCell>
        <mxCell id="QIbgbbybD2uV7bNP2A2N-24" value="" style="endArrow=none;html=1;rounded=0;" edge="1" parent="1" source="QIbgbbybD2uV7bNP2A2N-23" target="QIbgbbybD2uV7bNP2A2N-1">
          <mxGeometry relative="1" as="geometry">
            <mxPoint x="-100" y="573" as="sourcePoint" />
            <mxPoint x="-171" y="615" as="targetPoint" />
          </mxGeometry>
        </mxCell>
        <mxCell id="QIbgbbybD2uV7bNP2A2N-25" value="first_name" style="ellipse;whiteSpace=wrap;html=1;align=center;" vertex="1" parent="1">
          <mxGeometry x="-30" y="320" width="100" height="40" as="geometry" />
        </mxCell>
        <mxCell id="QIbgbbybD2uV7bNP2A2N-26" value="" style="endArrow=none;html=1;rounded=0;" edge="1" parent="1" source="QIbgbbybD2uV7bNP2A2N-25" target="QIbgbbybD2uV7bNP2A2N-1">
          <mxGeometry relative="1" as="geometry">
            <mxPoint x="-90" y="583" as="sourcePoint" />
            <mxPoint x="-161" y="625" as="targetPoint" />
          </mxGeometry>
        </mxCell>
        <mxCell id="QIbgbbybD2uV7bNP2A2N-27" value="is_active" style="ellipse;whiteSpace=wrap;html=1;align=center;" vertex="1" parent="1">
          <mxGeometry x="-420" y="360" width="100" height="40" as="geometry" />
        </mxCell>
        <mxCell id="QIbgbbybD2uV7bNP2A2N-28" value="" style="endArrow=none;html=1;rounded=0;" edge="1" parent="1" source="QIbgbbybD2uV7bNP2A2N-27" target="QIbgbbybD2uV7bNP2A2N-1">
          <mxGeometry relative="1" as="geometry">
            <mxPoint x="-80" y="593" as="sourcePoint" />
            <mxPoint x="-151" y="635" as="targetPoint" />
          </mxGeometry>
        </mxCell>
        <mxCell id="QIbgbbybD2uV7bNP2A2N-29" value="is_superuser" style="ellipse;whiteSpace=wrap;html=1;align=center;" vertex="1" parent="1">
          <mxGeometry x="-20" y="260" width="100" height="40" as="geometry" />
        </mxCell>
        <mxCell id="QIbgbbybD2uV7bNP2A2N-30" value="" style="endArrow=none;html=1;rounded=0;" edge="1" parent="1" source="QIbgbbybD2uV7bNP2A2N-29" target="QIbgbbybD2uV7bNP2A2N-1">
          <mxGeometry relative="1" as="geometry">
            <mxPoint x="-70" y="603" as="sourcePoint" />
            <mxPoint x="-141" y="645" as="targetPoint" />
          </mxGeometry>
        </mxCell>
        <mxCell id="QIbgbbybD2uV7bNP2A2N-31" value="date_joined" style="ellipse;whiteSpace=wrap;html=1;align=center;" vertex="1" parent="1">
          <mxGeometry x="-400" y="300" width="100" height="40" as="geometry" />
        </mxCell>
        <mxCell id="QIbgbbybD2uV7bNP2A2N-32" value="" style="endArrow=none;html=1;rounded=0;" edge="1" parent="1" source="QIbgbbybD2uV7bNP2A2N-31" target="QIbgbbybD2uV7bNP2A2N-1">
          <mxGeometry relative="1" as="geometry">
            <mxPoint x="-60" y="613" as="sourcePoint" />
            <mxPoint x="-131" y="655" as="targetPoint" />
          </mxGeometry>
        </mxCell>
        <mxCell id="QIbgbbybD2uV7bNP2A2N-33" value="last_login" style="ellipse;whiteSpace=wrap;html=1;align=center;" vertex="1" parent="1">
          <mxGeometry x="-70" y="220" width="100" height="40" as="geometry" />
        </mxCell>
        <mxCell id="QIbgbbybD2uV7bNP2A2N-34" value="" style="endArrow=none;html=1;rounded=0;" edge="1" parent="1" source="QIbgbbybD2uV7bNP2A2N-33" target="QIbgbbybD2uV7bNP2A2N-1">
          <mxGeometry relative="1" as="geometry">
            <mxPoint x="-50" y="623" as="sourcePoint" />
            <mxPoint x="-121" y="665" as="targetPoint" />
          </mxGeometry>
        </mxCell>
        <mxCell id="QIbgbbybD2uV7bNP2A2N-35" value="password" style="ellipse;whiteSpace=wrap;html=1;align=center;" vertex="1" parent="1">
          <mxGeometry x="-170" y="200" width="100" height="40" as="geometry" />
        </mxCell>
        <mxCell id="QIbgbbybD2uV7bNP2A2N-36" value="" style="endArrow=none;html=1;rounded=0;" edge="1" parent="1" source="QIbgbbybD2uV7bNP2A2N-35" target="QIbgbbybD2uV7bNP2A2N-1">
          <mxGeometry relative="1" as="geometry">
            <mxPoint x="80" y="328" as="sourcePoint" />
            <mxPoint x="9" y="370" as="targetPoint" />
          </mxGeometry>
        </mxCell>
        <mxCell id="QIbgbbybD2uV7bNP2A2N-38" value="Contract" style="whiteSpace=wrap;html=1;align=center;" vertex="1" parent="1">
          <mxGeometry x="400" y="350" width="100" height="40" as="geometry" />
        </mxCell>
        <mxCell id="QIbgbbybD2uV7bNP2A2N-39" value="id" style="ellipse;whiteSpace=wrap;html=1;align=center;fontStyle=4;" vertex="1" parent="1">
          <mxGeometry x="290" y="260" width="100" height="40" as="geometry" />
        </mxCell>
        <mxCell id="QIbgbbybD2uV7bNP2A2N-40" value="contract_type" style="ellipse;whiteSpace=wrap;html=1;align=center;" vertex="1" parent="1">
          <mxGeometry x="390" y="230" width="100" height="40" as="geometry" />
        </mxCell>
        <mxCell id="QIbgbbybD2uV7bNP2A2N-41" value="" style="endArrow=none;html=1;rounded=0;" edge="1" parent="1" source="QIbgbbybD2uV7bNP2A2N-39" target="QIbgbbybD2uV7bNP2A2N-38">
          <mxGeometry relative="1" as="geometry">
            <mxPoint x="140" y="490" as="sourcePoint" />
            <mxPoint x="300" y="490" as="targetPoint" />
          </mxGeometry>
        </mxCell>
        <mxCell id="QIbgbbybD2uV7bNP2A2N-42" value="" style="endArrow=none;html=1;rounded=0;" edge="1" parent="1" source="QIbgbbybD2uV7bNP2A2N-40" target="QIbgbbybD2uV7bNP2A2N-38">
          <mxGeometry relative="1" as="geometry">
            <mxPoint x="530" y="308" as="sourcePoint" />
            <mxPoint x="594" y="360" as="targetPoint" />
          </mxGeometry>
        </mxCell>
        <mxCell id="QIbgbbybD2uV7bNP2A2N-49" value="updated_at" style="ellipse;whiteSpace=wrap;html=1;align=center;" vertex="1" parent="1">
          <mxGeometry x="590" y="360" width="100" height="40" as="geometry" />
        </mxCell>
        <mxCell id="QIbgbbybD2uV7bNP2A2N-50" value="" style="endArrow=none;html=1;rounded=0;" edge="1" parent="1" source="QIbgbbybD2uV7bNP2A2N-49" target="QIbgbbybD2uV7bNP2A2N-38">
          <mxGeometry relative="1" as="geometry">
            <mxPoint x="520" y="593" as="sourcePoint" />
            <mxPoint x="449" y="635" as="targetPoint" />
          </mxGeometry>
        </mxCell>
        <mxCell id="QIbgbbybD2uV7bNP2A2N-53" value="created_at" style="ellipse;whiteSpace=wrap;html=1;align=center;" vertex="1" parent="1">
          <mxGeometry x="600" y="320" width="100" height="40" as="geometry" />
        </mxCell>
        <mxCell id="QIbgbbybD2uV7bNP2A2N-54" value="" style="endArrow=none;html=1;rounded=0;" edge="1" parent="1" source="QIbgbbybD2uV7bNP2A2N-53" target="QIbgbbybD2uV7bNP2A2N-38">
          <mxGeometry relative="1" as="geometry">
            <mxPoint x="540" y="613" as="sourcePoint" />
            <mxPoint x="469" y="655" as="targetPoint" />
          </mxGeometry>
        </mxCell>
        <mxCell id="QIbgbbybD2uV7bNP2A2N-57" value="contract_date" style="ellipse;whiteSpace=wrap;html=1;align=center;" vertex="1" parent="1">
          <mxGeometry x="590" y="260" width="100" height="40" as="geometry" />
        </mxCell>
        <mxCell id="QIbgbbybD2uV7bNP2A2N-58" value="" style="endArrow=none;html=1;rounded=0;" edge="1" parent="1" source="QIbgbbybD2uV7bNP2A2N-57" target="QIbgbbybD2uV7bNP2A2N-38">
          <mxGeometry relative="1" as="geometry">
            <mxPoint x="560" y="633" as="sourcePoint" />
            <mxPoint x="489" y="675" as="targetPoint" />
          </mxGeometry>
        </mxCell>
        <mxCell id="QIbgbbybD2uV7bNP2A2N-59" value="total_price" style="ellipse;whiteSpace=wrap;html=1;align=center;" vertex="1" parent="1">
          <mxGeometry x="500" y="230" width="100" height="40" as="geometry" />
        </mxCell>
        <mxCell id="QIbgbbybD2uV7bNP2A2N-60" value="" style="endArrow=none;html=1;rounded=0;" edge="1" parent="1" source="QIbgbbybD2uV7bNP2A2N-59" target="QIbgbbybD2uV7bNP2A2N-38">
          <mxGeometry relative="1" as="geometry">
            <mxPoint x="690" y="338" as="sourcePoint" />
            <mxPoint x="619" y="380" as="targetPoint" />
          </mxGeometry>
        </mxCell>
        <mxCell id="QIbgbbybD2uV7bNP2A2N-61" value="Car" style="whiteSpace=wrap;html=1;align=center;" vertex="1" parent="1">
          <mxGeometry x="-180" y="760" width="100" height="40" as="geometry" />
        </mxCell>
        <mxCell id="QIbgbbybD2uV7bNP2A2N-62" value="id" style="ellipse;whiteSpace=wrap;html=1;align=center;fontStyle=4;" vertex="1" parent="1">
          <mxGeometry x="-370" y="740" width="100" height="40" as="geometry" />
        </mxCell>
        <mxCell id="QIbgbbybD2uV7bNP2A2N-63" value="make" style="ellipse;whiteSpace=wrap;html=1;align=center;" vertex="1" parent="1">
          <mxGeometry x="-10" y="800" width="100" height="40" as="geometry" />
        </mxCell>
        <mxCell id="QIbgbbybD2uV7bNP2A2N-64" value="" style="endArrow=none;html=1;rounded=0;" edge="1" parent="1" source="QIbgbbybD2uV7bNP2A2N-62" target="QIbgbbybD2uV7bNP2A2N-61">
          <mxGeometry relative="1" as="geometry">
            <mxPoint x="-440" y="900" as="sourcePoint" />
            <mxPoint x="-280" y="900" as="targetPoint" />
          </mxGeometry>
        </mxCell>
        <mxCell id="QIbgbbybD2uV7bNP2A2N-65" value="" style="endArrow=none;html=1;rounded=0;" edge="1" parent="1" source="QIbgbbybD2uV7bNP2A2N-63" target="QIbgbbybD2uV7bNP2A2N-61">
          <mxGeometry relative="1" as="geometry">
            <mxPoint x="-50" y="718" as="sourcePoint" />
            <mxPoint x="14" y="770" as="targetPoint" />
          </mxGeometry>
        </mxCell>
        <mxCell id="QIbgbbybD2uV7bNP2A2N-76" value="updated_at" style="ellipse;whiteSpace=wrap;html=1;align=center;" vertex="1" parent="1">
          <mxGeometry x="-310" y="850" width="100" height="40" as="geometry" />
        </mxCell>
        <mxCell id="QIbgbbybD2uV7bNP2A2N-77" value="" style="endArrow=none;html=1;rounded=0;" edge="1" parent="1" source="QIbgbbybD2uV7bNP2A2N-76" target="QIbgbbybD2uV7bNP2A2N-61">
          <mxGeometry relative="1" as="geometry">
            <mxPoint x="-40" y="1023" as="sourcePoint" />
            <mxPoint x="-111" y="1065" as="targetPoint" />
          </mxGeometry>
        </mxCell>
        <mxCell id="QIbgbbybD2uV7bNP2A2N-80" value="created_at" style="ellipse;whiteSpace=wrap;html=1;align=center;" vertex="1" parent="1">
          <mxGeometry x="-180" y="900" width="100" height="40" as="geometry" />
        </mxCell>
        <mxCell id="QIbgbbybD2uV7bNP2A2N-81" value="" style="endArrow=none;html=1;rounded=0;" edge="1" parent="1" source="QIbgbbybD2uV7bNP2A2N-80" target="QIbgbbybD2uV7bNP2A2N-61">
          <mxGeometry relative="1" as="geometry">
            <mxPoint x="-20" y="1043" as="sourcePoint" />
            <mxPoint x="-91" y="1085" as="targetPoint" />
          </mxGeometry>
        </mxCell>
        <mxCell id="QIbgbbybD2uV7bNP2A2N-82" value="model" style="ellipse;whiteSpace=wrap;html=1;align=center;" vertex="1" parent="1">
          <mxGeometry x="-40" y="870" width="100" height="40" as="geometry" />
        </mxCell>
        <mxCell id="QIbgbbybD2uV7bNP2A2N-83" value="" style="endArrow=none;html=1;rounded=0;" edge="1" parent="1" source="QIbgbbybD2uV7bNP2A2N-82" target="QIbgbbybD2uV7bNP2A2N-61">
          <mxGeometry relative="1" as="geometry">
            <mxPoint x="110" y="748" as="sourcePoint" />
            <mxPoint x="39" y="790" as="targetPoint" />
          </mxGeometry>
        </mxCell>
        <mxCell id="QIbgbbybD2uV7bNP2A2N-86" value="" style="endArrow=none;html=1;rounded=0;" edge="1" parent="1" source="QIbgbbybD2uV7bNP2A2N-61" target="QIbgbbybD2uV7bNP2A2N-8">
          <mxGeometry relative="1" as="geometry">
            <mxPoint x="-160" y="650" as="sourcePoint" />
            <mxPoint y="650" as="targetPoint" />
          </mxGeometry>
        </mxCell>
        <mxCell id="QIbgbbybD2uV7bNP2A2N-87" value="N" style="resizable=0;html=1;whiteSpace=wrap;align=right;verticalAlign=bottom;" connectable="0" vertex="1" parent="QIbgbbybD2uV7bNP2A2N-86">
          <mxGeometry x="1" relative="1" as="geometry">
            <mxPoint x="-10" y="25" as="offset" />
          </mxGeometry>
        </mxCell>
        <mxCell id="QIbgbbybD2uV7bNP2A2N-89" value="" style="endArrow=none;html=1;rounded=0;" edge="1" parent="1" source="QIbgbbybD2uV7bNP2A2N-1" target="QIbgbbybD2uV7bNP2A2N-8">
          <mxGeometry relative="1" as="geometry">
            <mxPoint x="-30" y="500" as="sourcePoint" />
            <mxPoint x="130" y="500" as="targetPoint" />
          </mxGeometry>
        </mxCell>
        <mxCell id="QIbgbbybD2uV7bNP2A2N-90" value="1" style="resizable=0;html=1;whiteSpace=wrap;align=right;verticalAlign=bottom;" connectable="0" vertex="1" parent="QIbgbbybD2uV7bNP2A2N-89">
          <mxGeometry x="1" relative="1" as="geometry">
            <mxPoint x="10" y="-10" as="offset" />
          </mxGeometry>
        </mxCell>
        <mxCell id="QIbgbbybD2uV7bNP2A2N-93" value="" style="endArrow=none;html=1;rounded=0;" edge="1" parent="1" source="QIbgbbybD2uV7bNP2A2N-61" target="QIbgbbybD2uV7bNP2A2N-9">
          <mxGeometry relative="1" as="geometry">
            <mxPoint x="-112" y="770" as="sourcePoint" />
            <mxPoint x="-50" y="615" as="targetPoint" />
          </mxGeometry>
        </mxCell>
        <mxCell id="QIbgbbybD2uV7bNP2A2N-94" value="N" style="resizable=0;html=1;whiteSpace=wrap;align=right;verticalAlign=bottom;" connectable="0" vertex="1" parent="QIbgbbybD2uV7bNP2A2N-93">
          <mxGeometry x="1" relative="1" as="geometry">
            <mxPoint x="-10" y="25" as="offset" />
          </mxGeometry>
        </mxCell>
        <mxCell id="QIbgbbybD2uV7bNP2A2N-99" value="" style="endArrow=none;html=1;rounded=0;" edge="1" parent="1" source="QIbgbbybD2uV7bNP2A2N-38" target="QIbgbbybD2uV7bNP2A2N-9">
          <mxGeometry relative="1" as="geometry">
            <mxPoint x="-70" y="775" as="sourcePoint" />
            <mxPoint x="273" y="671" as="targetPoint" />
          </mxGeometry>
        </mxCell>
        <mxCell id="QIbgbbybD2uV7bNP2A2N-100" value="M" style="resizable=0;html=1;whiteSpace=wrap;align=right;verticalAlign=bottom;" connectable="0" vertex="1" parent="QIbgbbybD2uV7bNP2A2N-99">
          <mxGeometry x="1" relative="1" as="geometry">
            <mxPoint x="27" y="4" as="offset" />
          </mxGeometry>
        </mxCell>
        <mxCell id="QIbgbbybD2uV7bNP2A2N-101" value="individual_price" style="ellipse;whiteSpace=wrap;html=1;align=center;" vertex="1" parent="1">
          <mxGeometry x="450" y="668" width="100" height="40" as="geometry" />
        </mxCell>
        <mxCell id="QIbgbbybD2uV7bNP2A2N-102" value="" style="endArrow=none;html=1;rounded=0;" edge="1" parent="1" source="QIbgbbybD2uV7bNP2A2N-101" target="QIbgbbybD2uV7bNP2A2N-9">
          <mxGeometry relative="1" as="geometry">
            <mxPoint x="410" y="586" as="sourcePoint" />
            <mxPoint x="380" y="660" as="targetPoint" />
          </mxGeometry>
        </mxCell>
        <mxCell id="QIbgbbybD2uV7bNP2A2N-103" value="Notes" style="ellipse;whiteSpace=wrap;html=1;align=center;" vertex="1" parent="1">
          <mxGeometry x="400" y="728" width="100" height="40" as="geometry" />
        </mxCell>
        <mxCell id="QIbgbbybD2uV7bNP2A2N-104" value="" style="endArrow=none;html=1;rounded=0;" edge="1" parent="1" source="QIbgbbybD2uV7bNP2A2N-103" target="QIbgbbybD2uV7bNP2A2N-9">
          <mxGeometry relative="1" as="geometry">
            <mxPoint x="360" y="646" as="sourcePoint" />
            <mxPoint x="330" y="720" as="targetPoint" />
          </mxGeometry>
        </mxCell>
      </root>
    </mxGraphModel>
  </diagram>
  <diagram id="R2lEEEUBdFMjLlhIrx00" name="Schema">
    <mxGraphModel dx="2924" dy="2206" grid="1" gridSize="10" guides="1" tooltips="1" connect="1" arrows="1" fold="1" page="1" pageScale="1" pageWidth="850" pageHeight="1100" math="0" shadow="0" extFonts="Permanent Marker^https://fonts.googleapis.com/css?family=Permanent+Marker">
      <root>
        <mxCell id="0" />
        <mxCell id="1" parent="0" />
        <mxCell id="C-vyLk0tnHw3VtMMgP7b-1" value="" style="edgeStyle=orthogonalEdgeStyle;endArrow=ERzeroToMany;startArrow=ERone;endFill=1;startFill=0;" parent="1" source="C-vyLk0tnHw3VtMMgP7b-24" target="C-vyLk0tnHw3VtMMgP7b-6" edge="1">
          <mxGeometry width="100" height="100" relative="1" as="geometry">
            <mxPoint x="340" y="720" as="sourcePoint" />
            <mxPoint x="440" y="620" as="targetPoint" />
          </mxGeometry>
        </mxCell>
        <mxCell id="C-vyLk0tnHw3VtMMgP7b-12" value="" style="edgeStyle=orthogonalEdgeStyle;endArrow=ERzeroToMany;startArrow=ERone;endFill=1;startFill=0;exitX=0;exitY=0.5;exitDx=0;exitDy=0;" parent="1" source="C-vyLk0tnHw3VtMMgP7b-24" target="C-vyLk0tnHw3VtMMgP7b-17" edge="1">
          <mxGeometry width="100" height="100" relative="1" as="geometry">
            <mxPoint x="400" y="180" as="sourcePoint" />
            <mxPoint x="460" y="205" as="targetPoint" />
            <Array as="points">
              <mxPoint x="-290" y="25" />
              <mxPoint x="-290" y="560" />
              <mxPoint x="70" y="560" />
              <mxPoint x="70" y="595" />
            </Array>
          </mxGeometry>
        </mxCell>
        <mxCell id="C-vyLk0tnHw3VtMMgP7b-2" value="Car" style="shape=table;startSize=30;container=1;collapsible=1;childLayout=tableLayout;fixedRows=1;rowLines=0;fontStyle=1;align=center;resizeLast=1;" parent="1" vertex="1">
          <mxGeometry x="390" y="110" width="250" height="220" as="geometry" />
        </mxCell>
        <mxCell id="C-vyLk0tnHw3VtMMgP7b-3" value="" style="shape=partialRectangle;collapsible=0;dropTarget=0;pointerEvents=0;fillColor=none;points=[[0,0.5],[1,0.5]];portConstraint=eastwest;top=0;left=0;right=0;bottom=1;" parent="C-vyLk0tnHw3VtMMgP7b-2" vertex="1">
          <mxGeometry y="30" width="250" height="30" as="geometry" />
        </mxCell>
        <mxCell id="C-vyLk0tnHw3VtMMgP7b-4" value="PK" style="shape=partialRectangle;overflow=hidden;connectable=0;fillColor=none;top=0;left=0;bottom=0;right=0;fontStyle=1;" parent="C-vyLk0tnHw3VtMMgP7b-3" vertex="1">
          <mxGeometry width="30" height="30" as="geometry">
            <mxRectangle width="30" height="30" as="alternateBounds" />
          </mxGeometry>
        </mxCell>
        <mxCell id="C-vyLk0tnHw3VtMMgP7b-5" value="id int NOT NULL auto increment" style="shape=partialRectangle;overflow=hidden;connectable=0;fillColor=none;top=0;left=0;bottom=0;right=0;align=left;spacingLeft=6;fontStyle=5;" parent="C-vyLk0tnHw3VtMMgP7b-3" vertex="1">
          <mxGeometry x="30" width="220" height="30" as="geometry">
            <mxRectangle width="220" height="30" as="alternateBounds" />
          </mxGeometry>
        </mxCell>
        <mxCell id="C-vyLk0tnHw3VtMMgP7b-6" value="" style="shape=partialRectangle;collapsible=0;dropTarget=0;pointerEvents=0;fillColor=none;points=[[0,0.5],[1,0.5]];portConstraint=eastwest;top=0;left=0;right=0;bottom=0;" parent="C-vyLk0tnHw3VtMMgP7b-2" vertex="1">
          <mxGeometry y="60" width="250" height="30" as="geometry" />
        </mxCell>
        <mxCell id="C-vyLk0tnHw3VtMMgP7b-7" value="FK1" style="shape=partialRectangle;overflow=hidden;connectable=0;fillColor=none;top=0;left=0;bottom=0;right=0;" parent="C-vyLk0tnHw3VtMMgP7b-6" vertex="1">
          <mxGeometry width="30" height="30" as="geometry">
            <mxRectangle width="30" height="30" as="alternateBounds" />
          </mxGeometry>
        </mxCell>
        <mxCell id="C-vyLk0tnHw3VtMMgP7b-8" value="current_owner_id int NOT NULL" style="shape=partialRectangle;overflow=hidden;connectable=0;fillColor=none;top=0;left=0;bottom=0;right=0;align=left;spacingLeft=6;" parent="C-vyLk0tnHw3VtMMgP7b-6" vertex="1">
          <mxGeometry x="30" width="220" height="30" as="geometry">
            <mxRectangle width="220" height="30" as="alternateBounds" />
          </mxGeometry>
        </mxCell>
        <mxCell id="C-vyLk0tnHw3VtMMgP7b-9" value="" style="shape=partialRectangle;collapsible=0;dropTarget=0;pointerEvents=0;fillColor=none;points=[[0,0.5],[1,0.5]];portConstraint=eastwest;top=0;left=0;right=0;bottom=0;" parent="C-vyLk0tnHw3VtMMgP7b-2" vertex="1">
          <mxGeometry y="90" width="250" height="30" as="geometry" />
        </mxCell>
        <mxCell id="C-vyLk0tnHw3VtMMgP7b-10" value="1" style="shape=partialRectangle;overflow=hidden;connectable=0;fillColor=none;top=0;left=0;bottom=0;right=0;" parent="C-vyLk0tnHw3VtMMgP7b-9" vertex="1">
          <mxGeometry width="30" height="30" as="geometry">
            <mxRectangle width="30" height="30" as="alternateBounds" />
          </mxGeometry>
        </mxCell>
        <mxCell id="C-vyLk0tnHw3VtMMgP7b-11" value="make varchar(50) NOT NULL" style="shape=partialRectangle;overflow=hidden;connectable=0;fillColor=none;top=0;left=0;bottom=0;right=0;align=left;spacingLeft=6;" parent="C-vyLk0tnHw3VtMMgP7b-9" vertex="1">
          <mxGeometry x="30" width="220" height="30" as="geometry">
            <mxRectangle width="220" height="30" as="alternateBounds" />
          </mxGeometry>
        </mxCell>
        <mxCell id="z3WLd9BQnXG6RK3tEXam-64" value="" style="shape=tableRow;horizontal=0;startSize=0;swimlaneHead=0;swimlaneBody=0;fillColor=none;collapsible=0;dropTarget=0;points=[[0,0.5],[1,0.5]];portConstraint=eastwest;top=0;left=0;right=0;bottom=0;" vertex="1" parent="C-vyLk0tnHw3VtMMgP7b-2">
          <mxGeometry y="120" width="250" height="30" as="geometry" />
        </mxCell>
        <mxCell id="z3WLd9BQnXG6RK3tEXam-65" value="2" style="shape=partialRectangle;connectable=0;fillColor=none;top=0;left=0;bottom=0;right=0;editable=1;overflow=hidden;" vertex="1" parent="z3WLd9BQnXG6RK3tEXam-64">
          <mxGeometry width="30" height="30" as="geometry">
            <mxRectangle width="30" height="30" as="alternateBounds" />
          </mxGeometry>
        </mxCell>
        <mxCell id="z3WLd9BQnXG6RK3tEXam-66" value="model varchar(50) NOT NULL" style="shape=partialRectangle;connectable=0;fillColor=none;top=0;left=0;bottom=0;right=0;align=left;spacingLeft=6;overflow=hidden;" vertex="1" parent="z3WLd9BQnXG6RK3tEXam-64">
          <mxGeometry x="30" width="220" height="30" as="geometry">
            <mxRectangle width="220" height="30" as="alternateBounds" />
          </mxGeometry>
        </mxCell>
        <mxCell id="z3WLd9BQnXG6RK3tEXam-67" value="" style="shape=tableRow;horizontal=0;startSize=0;swimlaneHead=0;swimlaneBody=0;fillColor=none;collapsible=0;dropTarget=0;points=[[0,0.5],[1,0.5]];portConstraint=eastwest;top=0;left=0;right=0;bottom=0;" vertex="1" parent="C-vyLk0tnHw3VtMMgP7b-2">
          <mxGeometry y="150" width="250" height="30" as="geometry" />
        </mxCell>
        <mxCell id="z3WLd9BQnXG6RK3tEXam-68" value="3" style="shape=partialRectangle;connectable=0;fillColor=none;top=0;left=0;bottom=0;right=0;editable=1;overflow=hidden;" vertex="1" parent="z3WLd9BQnXG6RK3tEXam-67">
          <mxGeometry width="30" height="30" as="geometry">
            <mxRectangle width="30" height="30" as="alternateBounds" />
          </mxGeometry>
        </mxCell>
        <mxCell id="z3WLd9BQnXG6RK3tEXam-69" value="created_at datetime NOT NULL" style="shape=partialRectangle;connectable=0;fillColor=none;top=0;left=0;bottom=0;right=0;align=left;spacingLeft=6;overflow=hidden;" vertex="1" parent="z3WLd9BQnXG6RK3tEXam-67">
          <mxGeometry x="30" width="220" height="30" as="geometry">
            <mxRectangle width="220" height="30" as="alternateBounds" />
          </mxGeometry>
        </mxCell>
        <mxCell id="z3WLd9BQnXG6RK3tEXam-61" value="" style="shape=tableRow;horizontal=0;startSize=0;swimlaneHead=0;swimlaneBody=0;fillColor=none;collapsible=0;dropTarget=0;points=[[0,0.5],[1,0.5]];portConstraint=eastwest;top=0;left=0;right=0;bottom=0;" vertex="1" parent="C-vyLk0tnHw3VtMMgP7b-2">
          <mxGeometry y="180" width="250" height="30" as="geometry" />
        </mxCell>
        <mxCell id="z3WLd9BQnXG6RK3tEXam-62" value="4" style="shape=partialRectangle;connectable=0;fillColor=none;top=0;left=0;bottom=0;right=0;editable=1;overflow=hidden;" vertex="1" parent="z3WLd9BQnXG6RK3tEXam-61">
          <mxGeometry width="30" height="30" as="geometry">
            <mxRectangle width="30" height="30" as="alternateBounds" />
          </mxGeometry>
        </mxCell>
        <mxCell id="z3WLd9BQnXG6RK3tEXam-63" value="updated_at datetime NOT NULL" style="shape=partialRectangle;connectable=0;fillColor=none;top=0;left=0;bottom=0;right=0;align=left;spacingLeft=6;overflow=hidden;" vertex="1" parent="z3WLd9BQnXG6RK3tEXam-61">
          <mxGeometry x="30" width="220" height="30" as="geometry">
            <mxRectangle width="220" height="30" as="alternateBounds" />
          </mxGeometry>
        </mxCell>
        <mxCell id="C-vyLk0tnHw3VtMMgP7b-13" value="Contract" style="shape=table;startSize=30;container=1;collapsible=1;childLayout=tableLayout;fixedRows=1;rowLines=0;fontStyle=1;align=center;resizeLast=1;" parent="1" vertex="1">
          <mxGeometry x="140" y="520" width="250" height="280" as="geometry" />
        </mxCell>
        <mxCell id="C-vyLk0tnHw3VtMMgP7b-14" value="" style="shape=partialRectangle;collapsible=0;dropTarget=0;pointerEvents=0;fillColor=none;points=[[0,0.5],[1,0.5]];portConstraint=eastwest;top=0;left=0;right=0;bottom=1;" parent="C-vyLk0tnHw3VtMMgP7b-13" vertex="1">
          <mxGeometry y="30" width="250" height="30" as="geometry" />
        </mxCell>
        <mxCell id="C-vyLk0tnHw3VtMMgP7b-15" value="PK" style="shape=partialRectangle;overflow=hidden;connectable=0;fillColor=none;top=0;left=0;bottom=0;right=0;fontStyle=1;" parent="C-vyLk0tnHw3VtMMgP7b-14" vertex="1">
          <mxGeometry width="30" height="30" as="geometry">
            <mxRectangle width="30" height="30" as="alternateBounds" />
          </mxGeometry>
        </mxCell>
        <mxCell id="C-vyLk0tnHw3VtMMgP7b-16" value="id int NOT NULL auto increment" style="shape=partialRectangle;overflow=hidden;connectable=0;fillColor=none;top=0;left=0;bottom=0;right=0;align=left;spacingLeft=6;fontStyle=5;" parent="C-vyLk0tnHw3VtMMgP7b-14" vertex="1">
          <mxGeometry x="30" width="220" height="30" as="geometry">
            <mxRectangle width="220" height="30" as="alternateBounds" />
          </mxGeometry>
        </mxCell>
        <mxCell id="C-vyLk0tnHw3VtMMgP7b-17" value="" style="shape=partialRectangle;collapsible=0;dropTarget=0;pointerEvents=0;fillColor=none;points=[[0,0.5],[1,0.5]];portConstraint=eastwest;top=0;left=0;right=0;bottom=0;" parent="C-vyLk0tnHw3VtMMgP7b-13" vertex="1">
          <mxGeometry y="60" width="250" height="30" as="geometry" />
        </mxCell>
        <mxCell id="C-vyLk0tnHw3VtMMgP7b-18" value="FK1" style="shape=partialRectangle;overflow=hidden;connectable=0;fillColor=none;top=0;left=0;bottom=0;right=0;" parent="C-vyLk0tnHw3VtMMgP7b-17" vertex="1">
          <mxGeometry width="30" height="30" as="geometry">
            <mxRectangle width="30" height="30" as="alternateBounds" />
          </mxGeometry>
        </mxCell>
        <mxCell id="C-vyLk0tnHw3VtMMgP7b-19" value="buyer_id int NOT NULL" style="shape=partialRectangle;overflow=hidden;connectable=0;fillColor=none;top=0;left=0;bottom=0;right=0;align=left;spacingLeft=6;" parent="C-vyLk0tnHw3VtMMgP7b-17" vertex="1">
          <mxGeometry x="30" width="220" height="30" as="geometry">
            <mxRectangle width="220" height="30" as="alternateBounds" />
          </mxGeometry>
        </mxCell>
        <mxCell id="C-vyLk0tnHw3VtMMgP7b-20" value="" style="shape=partialRectangle;collapsible=0;dropTarget=0;pointerEvents=0;fillColor=none;points=[[0,0.5],[1,0.5]];portConstraint=eastwest;top=0;left=0;right=0;bottom=0;" parent="C-vyLk0tnHw3VtMMgP7b-13" vertex="1">
          <mxGeometry y="90" width="250" height="30" as="geometry" />
        </mxCell>
        <mxCell id="C-vyLk0tnHw3VtMMgP7b-21" value="FK2" style="shape=partialRectangle;overflow=hidden;connectable=0;fillColor=none;top=0;left=0;bottom=0;right=0;" parent="C-vyLk0tnHw3VtMMgP7b-20" vertex="1">
          <mxGeometry width="30" height="30" as="geometry">
            <mxRectangle width="30" height="30" as="alternateBounds" />
          </mxGeometry>
        </mxCell>
        <mxCell id="C-vyLk0tnHw3VtMMgP7b-22" value="seller_id int NOT NULL" style="shape=partialRectangle;overflow=hidden;connectable=0;fillColor=none;top=0;left=0;bottom=0;right=0;align=left;spacingLeft=6;" parent="C-vyLk0tnHw3VtMMgP7b-20" vertex="1">
          <mxGeometry x="30" width="220" height="30" as="geometry">
            <mxRectangle width="220" height="30" as="alternateBounds" />
          </mxGeometry>
        </mxCell>
        <mxCell id="z3WLd9BQnXG6RK3tEXam-76" value="" style="shape=tableRow;horizontal=0;startSize=0;swimlaneHead=0;swimlaneBody=0;fillColor=none;collapsible=0;dropTarget=0;points=[[0,0.5],[1,0.5]];portConstraint=eastwest;top=0;left=0;right=0;bottom=0;" vertex="1" parent="C-vyLk0tnHw3VtMMgP7b-13">
          <mxGeometry y="120" width="250" height="30" as="geometry" />
        </mxCell>
        <mxCell id="z3WLd9BQnXG6RK3tEXam-77" value="1" style="shape=partialRectangle;connectable=0;fillColor=none;top=0;left=0;bottom=0;right=0;editable=1;overflow=hidden;" vertex="1" parent="z3WLd9BQnXG6RK3tEXam-76">
          <mxGeometry width="30" height="30" as="geometry">
            <mxRectangle width="30" height="30" as="alternateBounds" />
          </mxGeometry>
        </mxCell>
        <mxCell id="z3WLd9BQnXG6RK3tEXam-78" value="contract_type varchar(10) NOT NULL" style="shape=partialRectangle;connectable=0;fillColor=none;top=0;left=0;bottom=0;right=0;align=left;spacingLeft=6;overflow=hidden;" vertex="1" parent="z3WLd9BQnXG6RK3tEXam-76">
          <mxGeometry x="30" width="220" height="30" as="geometry">
            <mxRectangle width="220" height="30" as="alternateBounds" />
          </mxGeometry>
        </mxCell>
        <mxCell id="z3WLd9BQnXG6RK3tEXam-100" value="" style="shape=tableRow;horizontal=0;startSize=0;swimlaneHead=0;swimlaneBody=0;fillColor=none;collapsible=0;dropTarget=0;points=[[0,0.5],[1,0.5]];portConstraint=eastwest;top=0;left=0;right=0;bottom=0;" vertex="1" parent="C-vyLk0tnHw3VtMMgP7b-13">
          <mxGeometry y="150" width="250" height="30" as="geometry" />
        </mxCell>
        <mxCell id="z3WLd9BQnXG6RK3tEXam-101" value="2" style="shape=partialRectangle;connectable=0;fillColor=none;top=0;left=0;bottom=0;right=0;editable=1;overflow=hidden;" vertex="1" parent="z3WLd9BQnXG6RK3tEXam-100">
          <mxGeometry width="30" height="30" as="geometry">
            <mxRectangle width="30" height="30" as="alternateBounds" />
          </mxGeometry>
        </mxCell>
        <mxCell id="z3WLd9BQnXG6RK3tEXam-102" value="total_price decimal NOT NULL" style="shape=partialRectangle;connectable=0;fillColor=none;top=0;left=0;bottom=0;right=0;align=left;spacingLeft=6;overflow=hidden;" vertex="1" parent="z3WLd9BQnXG6RK3tEXam-100">
          <mxGeometry x="30" width="220" height="30" as="geometry">
            <mxRectangle width="220" height="30" as="alternateBounds" />
          </mxGeometry>
        </mxCell>
        <mxCell id="z3WLd9BQnXG6RK3tEXam-72" value="" style="shape=tableRow;horizontal=0;startSize=0;swimlaneHead=0;swimlaneBody=0;fillColor=none;collapsible=0;dropTarget=0;points=[[0,0.5],[1,0.5]];portConstraint=eastwest;top=0;left=0;right=0;bottom=0;" vertex="1" parent="C-vyLk0tnHw3VtMMgP7b-13">
          <mxGeometry y="180" width="250" height="30" as="geometry" />
        </mxCell>
        <mxCell id="z3WLd9BQnXG6RK3tEXam-73" value="3" style="shape=partialRectangle;connectable=0;fillColor=none;top=0;left=0;bottom=0;right=0;editable=1;overflow=hidden;" vertex="1" parent="z3WLd9BQnXG6RK3tEXam-72">
          <mxGeometry width="30" height="30" as="geometry">
            <mxRectangle width="30" height="30" as="alternateBounds" />
          </mxGeometry>
        </mxCell>
        <mxCell id="z3WLd9BQnXG6RK3tEXam-74" value="contract_date datetime NOT NULL" style="shape=partialRectangle;connectable=0;fillColor=none;top=0;left=0;bottom=0;right=0;align=left;spacingLeft=6;overflow=hidden;" vertex="1" parent="z3WLd9BQnXG6RK3tEXam-72">
          <mxGeometry x="30" width="220" height="30" as="geometry">
            <mxRectangle width="220" height="30" as="alternateBounds" />
          </mxGeometry>
        </mxCell>
        <mxCell id="z3WLd9BQnXG6RK3tEXam-96" value="" style="shape=tableRow;horizontal=0;startSize=0;swimlaneHead=0;swimlaneBody=0;fillColor=none;collapsible=0;dropTarget=0;points=[[0,0.5],[1,0.5]];portConstraint=eastwest;top=0;left=0;right=0;bottom=0;" vertex="1" parent="C-vyLk0tnHw3VtMMgP7b-13">
          <mxGeometry y="210" width="250" height="30" as="geometry" />
        </mxCell>
        <mxCell id="z3WLd9BQnXG6RK3tEXam-97" value="4" style="shape=partialRectangle;connectable=0;fillColor=none;top=0;left=0;bottom=0;right=0;editable=1;overflow=hidden;" vertex="1" parent="z3WLd9BQnXG6RK3tEXam-96">
          <mxGeometry width="30" height="30" as="geometry">
            <mxRectangle width="30" height="30" as="alternateBounds" />
          </mxGeometry>
        </mxCell>
        <mxCell id="z3WLd9BQnXG6RK3tEXam-98" value="created_at datetime NOT NULL" style="shape=partialRectangle;connectable=0;fillColor=none;top=0;left=0;bottom=0;right=0;align=left;spacingLeft=6;overflow=hidden;" vertex="1" parent="z3WLd9BQnXG6RK3tEXam-96">
          <mxGeometry x="30" width="220" height="30" as="geometry">
            <mxRectangle width="220" height="30" as="alternateBounds" />
          </mxGeometry>
        </mxCell>
        <mxCell id="z3WLd9BQnXG6RK3tEXam-80" value="" style="shape=tableRow;horizontal=0;startSize=0;swimlaneHead=0;swimlaneBody=0;fillColor=none;collapsible=0;dropTarget=0;points=[[0,0.5],[1,0.5]];portConstraint=eastwest;top=0;left=0;right=0;bottom=0;" vertex="1" parent="C-vyLk0tnHw3VtMMgP7b-13">
          <mxGeometry y="240" width="250" height="30" as="geometry" />
        </mxCell>
        <mxCell id="z3WLd9BQnXG6RK3tEXam-81" value="5" style="shape=partialRectangle;connectable=0;fillColor=none;top=0;left=0;bottom=0;right=0;editable=1;overflow=hidden;" vertex="1" parent="z3WLd9BQnXG6RK3tEXam-80">
          <mxGeometry width="30" height="30" as="geometry">
            <mxRectangle width="30" height="30" as="alternateBounds" />
          </mxGeometry>
        </mxCell>
        <mxCell id="z3WLd9BQnXG6RK3tEXam-82" value="updated_at datetime NOT NULL " style="shape=partialRectangle;connectable=0;fillColor=none;top=0;left=0;bottom=0;right=0;align=left;spacingLeft=6;overflow=hidden;" vertex="1" parent="z3WLd9BQnXG6RK3tEXam-80">
          <mxGeometry x="30" width="220" height="30" as="geometry">
            <mxRectangle width="220" height="30" as="alternateBounds" />
          </mxGeometry>
        </mxCell>
        <mxCell id="C-vyLk0tnHw3VtMMgP7b-23" value="User" style="shape=table;startSize=30;container=1;collapsible=1;childLayout=tableLayout;fixedRows=1;rowLines=0;fontStyle=1;align=center;resizeLast=1;" parent="1" vertex="1">
          <mxGeometry x="-180" y="-20" width="250" height="370" as="geometry" />
        </mxCell>
        <mxCell id="C-vyLk0tnHw3VtMMgP7b-24" value="" style="shape=partialRectangle;collapsible=0;dropTarget=0;pointerEvents=0;fillColor=none;points=[[0,0.5],[1,0.5]];portConstraint=eastwest;top=0;left=0;right=0;bottom=1;" parent="C-vyLk0tnHw3VtMMgP7b-23" vertex="1">
          <mxGeometry y="30" width="250" height="30" as="geometry" />
        </mxCell>
        <mxCell id="C-vyLk0tnHw3VtMMgP7b-25" value="PK" style="shape=partialRectangle;overflow=hidden;connectable=0;fillColor=none;top=0;left=0;bottom=0;right=0;fontStyle=1;" parent="C-vyLk0tnHw3VtMMgP7b-24" vertex="1">
          <mxGeometry width="30" height="30" as="geometry">
            <mxRectangle width="30" height="30" as="alternateBounds" />
          </mxGeometry>
        </mxCell>
        <mxCell id="C-vyLk0tnHw3VtMMgP7b-26" value="id int NOT NULL auto increment" style="shape=partialRectangle;overflow=hidden;connectable=0;fillColor=none;top=0;left=0;bottom=0;right=0;align=left;spacingLeft=6;fontStyle=5;" parent="C-vyLk0tnHw3VtMMgP7b-24" vertex="1">
          <mxGeometry x="30" width="220" height="30" as="geometry">
            <mxRectangle width="220" height="30" as="alternateBounds" />
          </mxGeometry>
        </mxCell>
        <mxCell id="C-vyLk0tnHw3VtMMgP7b-27" value="" style="shape=partialRectangle;collapsible=0;dropTarget=0;pointerEvents=0;fillColor=none;points=[[0,0.5],[1,0.5]];portConstraint=eastwest;top=0;left=0;right=0;bottom=0;" parent="C-vyLk0tnHw3VtMMgP7b-23" vertex="1">
          <mxGeometry y="60" width="250" height="30" as="geometry" />
        </mxCell>
        <mxCell id="C-vyLk0tnHw3VtMMgP7b-28" value="1" style="shape=partialRectangle;overflow=hidden;connectable=0;fillColor=none;top=0;left=0;bottom=0;right=0;" parent="C-vyLk0tnHw3VtMMgP7b-27" vertex="1">
          <mxGeometry width="30" height="30" as="geometry">
            <mxRectangle width="30" height="30" as="alternateBounds" />
          </mxGeometry>
        </mxCell>
        <mxCell id="C-vyLk0tnHw3VtMMgP7b-29" value="password varchar(128) NOT NULL" style="shape=partialRectangle;overflow=hidden;connectable=0;fillColor=none;top=0;left=0;bottom=0;right=0;align=left;spacingLeft=6;" parent="C-vyLk0tnHw3VtMMgP7b-27" vertex="1">
          <mxGeometry x="30" width="220" height="30" as="geometry">
            <mxRectangle width="220" height="30" as="alternateBounds" />
          </mxGeometry>
        </mxCell>
        <mxCell id="z3WLd9BQnXG6RK3tEXam-5" value="" style="shape=tableRow;horizontal=0;startSize=0;swimlaneHead=0;swimlaneBody=0;fillColor=none;collapsible=0;dropTarget=0;points=[[0,0.5],[1,0.5]];portConstraint=eastwest;top=0;left=0;right=0;bottom=0;" vertex="1" parent="C-vyLk0tnHw3VtMMgP7b-23">
          <mxGeometry y="90" width="250" height="30" as="geometry" />
        </mxCell>
        <mxCell id="z3WLd9BQnXG6RK3tEXam-6" value="2" style="shape=partialRectangle;connectable=0;fillColor=none;top=0;left=0;bottom=0;right=0;editable=1;overflow=hidden;" vertex="1" parent="z3WLd9BQnXG6RK3tEXam-5">
          <mxGeometry width="30" height="30" as="geometry">
            <mxRectangle width="30" height="30" as="alternateBounds" />
          </mxGeometry>
        </mxCell>
        <mxCell id="z3WLd9BQnXG6RK3tEXam-7" value="last_login datetime" style="shape=partialRectangle;connectable=0;fillColor=none;top=0;left=0;bottom=0;right=0;align=left;spacingLeft=6;overflow=hidden;" vertex="1" parent="z3WLd9BQnXG6RK3tEXam-5">
          <mxGeometry x="30" width="220" height="30" as="geometry">
            <mxRectangle width="220" height="30" as="alternateBounds" />
          </mxGeometry>
        </mxCell>
        <mxCell id="z3WLd9BQnXG6RK3tEXam-11" value="" style="shape=tableRow;horizontal=0;startSize=0;swimlaneHead=0;swimlaneBody=0;fillColor=none;collapsible=0;dropTarget=0;points=[[0,0.5],[1,0.5]];portConstraint=eastwest;top=0;left=0;right=0;bottom=0;" vertex="1" parent="C-vyLk0tnHw3VtMMgP7b-23">
          <mxGeometry y="120" width="250" height="30" as="geometry" />
        </mxCell>
        <mxCell id="z3WLd9BQnXG6RK3tEXam-12" value="3" style="shape=partialRectangle;connectable=0;fillColor=none;top=0;left=0;bottom=0;right=0;editable=1;overflow=hidden;" vertex="1" parent="z3WLd9BQnXG6RK3tEXam-11">
          <mxGeometry width="30" height="30" as="geometry">
            <mxRectangle width="30" height="30" as="alternateBounds" />
          </mxGeometry>
        </mxCell>
        <mxCell id="z3WLd9BQnXG6RK3tEXam-13" value="is_superuser bool NOT NULL" style="shape=partialRectangle;connectable=0;fillColor=none;top=0;left=0;bottom=0;right=0;align=left;spacingLeft=6;overflow=hidden;" vertex="1" parent="z3WLd9BQnXG6RK3tEXam-11">
          <mxGeometry x="30" width="220" height="30" as="geometry">
            <mxRectangle width="220" height="30" as="alternateBounds" />
          </mxGeometry>
        </mxCell>
        <mxCell id="z3WLd9BQnXG6RK3tEXam-17" value="" style="shape=tableRow;horizontal=0;startSize=0;swimlaneHead=0;swimlaneBody=0;fillColor=none;collapsible=0;dropTarget=0;points=[[0,0.5],[1,0.5]];portConstraint=eastwest;top=0;left=0;right=0;bottom=0;" vertex="1" parent="C-vyLk0tnHw3VtMMgP7b-23">
          <mxGeometry y="150" width="250" height="30" as="geometry" />
        </mxCell>
        <mxCell id="z3WLd9BQnXG6RK3tEXam-18" value="4" style="shape=partialRectangle;connectable=0;fillColor=none;top=0;left=0;bottom=0;right=0;editable=1;overflow=hidden;" vertex="1" parent="z3WLd9BQnXG6RK3tEXam-17">
          <mxGeometry width="30" height="30" as="geometry">
            <mxRectangle width="30" height="30" as="alternateBounds" />
          </mxGeometry>
        </mxCell>
        <mxCell id="z3WLd9BQnXG6RK3tEXam-19" value="username varchar(150) NOT NULL" style="shape=partialRectangle;connectable=0;fillColor=none;top=0;left=0;bottom=0;right=0;align=left;spacingLeft=6;overflow=hidden;" vertex="1" parent="z3WLd9BQnXG6RK3tEXam-17">
          <mxGeometry x="30" width="220" height="30" as="geometry">
            <mxRectangle width="220" height="30" as="alternateBounds" />
          </mxGeometry>
        </mxCell>
        <mxCell id="z3WLd9BQnXG6RK3tEXam-20" value="" style="shape=tableRow;horizontal=0;startSize=0;swimlaneHead=0;swimlaneBody=0;fillColor=none;collapsible=0;dropTarget=0;points=[[0,0.5],[1,0.5]];portConstraint=eastwest;top=0;left=0;right=0;bottom=0;" vertex="1" parent="C-vyLk0tnHw3VtMMgP7b-23">
          <mxGeometry y="180" width="250" height="30" as="geometry" />
        </mxCell>
        <mxCell id="z3WLd9BQnXG6RK3tEXam-21" value="5" style="shape=partialRectangle;connectable=0;fillColor=none;top=0;left=0;bottom=0;right=0;editable=1;overflow=hidden;" vertex="1" parent="z3WLd9BQnXG6RK3tEXam-20">
          <mxGeometry width="30" height="30" as="geometry">
            <mxRectangle width="30" height="30" as="alternateBounds" />
          </mxGeometry>
        </mxCell>
        <mxCell id="z3WLd9BQnXG6RK3tEXam-22" value="first_name varchar(150) NOT NULL" style="shape=partialRectangle;connectable=0;fillColor=none;top=0;left=0;bottom=0;right=0;align=left;spacingLeft=6;overflow=hidden;" vertex="1" parent="z3WLd9BQnXG6RK3tEXam-20">
          <mxGeometry x="30" width="220" height="30" as="geometry">
            <mxRectangle width="220" height="30" as="alternateBounds" />
          </mxGeometry>
        </mxCell>
        <mxCell id="z3WLd9BQnXG6RK3tEXam-23" value="" style="shape=tableRow;horizontal=0;startSize=0;swimlaneHead=0;swimlaneBody=0;fillColor=none;collapsible=0;dropTarget=0;points=[[0,0.5],[1,0.5]];portConstraint=eastwest;top=0;left=0;right=0;bottom=0;" vertex="1" parent="C-vyLk0tnHw3VtMMgP7b-23">
          <mxGeometry y="210" width="250" height="30" as="geometry" />
        </mxCell>
        <mxCell id="z3WLd9BQnXG6RK3tEXam-24" value="6" style="shape=partialRectangle;connectable=0;fillColor=none;top=0;left=0;bottom=0;right=0;editable=1;overflow=hidden;" vertex="1" parent="z3WLd9BQnXG6RK3tEXam-23">
          <mxGeometry width="30" height="30" as="geometry">
            <mxRectangle width="30" height="30" as="alternateBounds" />
          </mxGeometry>
        </mxCell>
        <mxCell id="z3WLd9BQnXG6RK3tEXam-25" value="last_name varchar(150) NOT NULL" style="shape=partialRectangle;connectable=0;fillColor=none;top=0;left=0;bottom=0;right=0;align=left;spacingLeft=6;overflow=hidden;" vertex="1" parent="z3WLd9BQnXG6RK3tEXam-23">
          <mxGeometry x="30" width="220" height="30" as="geometry">
            <mxRectangle width="220" height="30" as="alternateBounds" />
          </mxGeometry>
        </mxCell>
        <mxCell id="z3WLd9BQnXG6RK3tEXam-58" value="" style="shape=tableRow;horizontal=0;startSize=0;swimlaneHead=0;swimlaneBody=0;fillColor=none;collapsible=0;dropTarget=0;points=[[0,0.5],[1,0.5]];portConstraint=eastwest;top=0;left=0;right=0;bottom=0;" vertex="1" parent="C-vyLk0tnHw3VtMMgP7b-23">
          <mxGeometry y="240" width="250" height="30" as="geometry" />
        </mxCell>
        <mxCell id="z3WLd9BQnXG6RK3tEXam-59" value="7" style="shape=partialRectangle;connectable=0;fillColor=none;top=0;left=0;bottom=0;right=0;editable=1;overflow=hidden;" vertex="1" parent="z3WLd9BQnXG6RK3tEXam-58">
          <mxGeometry width="30" height="30" as="geometry">
            <mxRectangle width="30" height="30" as="alternateBounds" />
          </mxGeometry>
        </mxCell>
        <mxCell id="z3WLd9BQnXG6RK3tEXam-60" value="email varchar(254) NOT NULL" style="shape=partialRectangle;connectable=0;fillColor=none;top=0;left=0;bottom=0;right=0;align=left;spacingLeft=6;overflow=hidden;" vertex="1" parent="z3WLd9BQnXG6RK3tEXam-58">
          <mxGeometry x="30" width="220" height="30" as="geometry">
            <mxRectangle width="220" height="30" as="alternateBounds" />
          </mxGeometry>
        </mxCell>
        <mxCell id="z3WLd9BQnXG6RK3tEXam-55" value="" style="shape=tableRow;horizontal=0;startSize=0;swimlaneHead=0;swimlaneBody=0;fillColor=none;collapsible=0;dropTarget=0;points=[[0,0.5],[1,0.5]];portConstraint=eastwest;top=0;left=0;right=0;bottom=0;" vertex="1" parent="C-vyLk0tnHw3VtMMgP7b-23">
          <mxGeometry y="270" width="250" height="30" as="geometry" />
        </mxCell>
        <mxCell id="z3WLd9BQnXG6RK3tEXam-56" value="8" style="shape=partialRectangle;connectable=0;fillColor=none;top=0;left=0;bottom=0;right=0;editable=1;overflow=hidden;" vertex="1" parent="z3WLd9BQnXG6RK3tEXam-55">
          <mxGeometry width="30" height="30" as="geometry">
            <mxRectangle width="30" height="30" as="alternateBounds" />
          </mxGeometry>
        </mxCell>
        <mxCell id="z3WLd9BQnXG6RK3tEXam-57" value="is_staff bool NOT NULL" style="shape=partialRectangle;connectable=0;fillColor=none;top=0;left=0;bottom=0;right=0;align=left;spacingLeft=6;overflow=hidden;" vertex="1" parent="z3WLd9BQnXG6RK3tEXam-55">
          <mxGeometry x="30" width="220" height="30" as="geometry">
            <mxRectangle width="220" height="30" as="alternateBounds" />
          </mxGeometry>
        </mxCell>
        <mxCell id="z3WLd9BQnXG6RK3tEXam-14" value="" style="shape=tableRow;horizontal=0;startSize=0;swimlaneHead=0;swimlaneBody=0;fillColor=none;collapsible=0;dropTarget=0;points=[[0,0.5],[1,0.5]];portConstraint=eastwest;top=0;left=0;right=0;bottom=0;" vertex="1" parent="C-vyLk0tnHw3VtMMgP7b-23">
          <mxGeometry y="300" width="250" height="30" as="geometry" />
        </mxCell>
        <mxCell id="z3WLd9BQnXG6RK3tEXam-15" value="9" style="shape=partialRectangle;connectable=0;fillColor=none;top=0;left=0;bottom=0;right=0;editable=1;overflow=hidden;" vertex="1" parent="z3WLd9BQnXG6RK3tEXam-14">
          <mxGeometry width="30" height="30" as="geometry">
            <mxRectangle width="30" height="30" as="alternateBounds" />
          </mxGeometry>
        </mxCell>
        <mxCell id="z3WLd9BQnXG6RK3tEXam-16" value="is_active bool NOT NULL" style="shape=partialRectangle;connectable=0;fillColor=none;top=0;left=0;bottom=0;right=0;align=left;spacingLeft=6;overflow=hidden;" vertex="1" parent="z3WLd9BQnXG6RK3tEXam-14">
          <mxGeometry x="30" width="220" height="30" as="geometry">
            <mxRectangle width="220" height="30" as="alternateBounds" />
          </mxGeometry>
        </mxCell>
        <mxCell id="z3WLd9BQnXG6RK3tEXam-8" value="" style="shape=tableRow;horizontal=0;startSize=0;swimlaneHead=0;swimlaneBody=0;fillColor=none;collapsible=0;dropTarget=0;points=[[0,0.5],[1,0.5]];portConstraint=eastwest;top=0;left=0;right=0;bottom=0;" vertex="1" parent="C-vyLk0tnHw3VtMMgP7b-23">
          <mxGeometry y="330" width="250" height="30" as="geometry" />
        </mxCell>
        <mxCell id="z3WLd9BQnXG6RK3tEXam-9" value="10" style="shape=partialRectangle;connectable=0;fillColor=none;top=0;left=0;bottom=0;right=0;editable=1;overflow=hidden;" vertex="1" parent="z3WLd9BQnXG6RK3tEXam-8">
          <mxGeometry width="30" height="30" as="geometry">
            <mxRectangle width="30" height="30" as="alternateBounds" />
          </mxGeometry>
        </mxCell>
        <mxCell id="z3WLd9BQnXG6RK3tEXam-10" value="date_joined datetime NOT NULL" style="shape=partialRectangle;connectable=0;fillColor=none;top=0;left=0;bottom=0;right=0;align=left;spacingLeft=6;overflow=hidden;" vertex="1" parent="z3WLd9BQnXG6RK3tEXam-8">
          <mxGeometry x="30" width="220" height="30" as="geometry">
            <mxRectangle width="220" height="30" as="alternateBounds" />
          </mxGeometry>
        </mxCell>
        <mxCell id="z3WLd9BQnXG6RK3tEXam-70" value="" style="edgeStyle=orthogonalEdgeStyle;endArrow=ERzeroToMany;startArrow=ERone;endFill=1;startFill=0;exitX=0;exitY=0.5;exitDx=0;exitDy=0;" edge="1" parent="1" source="C-vyLk0tnHw3VtMMgP7b-24" target="C-vyLk0tnHw3VtMMgP7b-20">
          <mxGeometry width="100" height="100" relative="1" as="geometry">
            <mxPoint x="-370" y="80" as="sourcePoint" />
            <mxPoint x="70" y="600" as="targetPoint" />
            <Array as="points">
              <mxPoint x="-360" y="25" />
              <mxPoint x="-360" y="640" />
              <mxPoint x="30" y="640" />
              <mxPoint x="30" y="625" />
            </Array>
          </mxGeometry>
        </mxCell>
        <mxCell id="z3WLd9BQnXG6RK3tEXam-116" value="" style="edgeStyle=orthogonalEdgeStyle;endArrow=ERzeroToMany;startArrow=ERone;endFill=1;startFill=0;" edge="1" parent="1" source="C-vyLk0tnHw3VtMMgP7b-3" target="z3WLd9BQnXG6RK3tEXam-110">
          <mxGeometry width="100" height="100" relative="1" as="geometry">
            <mxPoint y="350" as="sourcePoint" />
            <mxPoint x="440" y="400" as="targetPoint" />
          </mxGeometry>
        </mxCell>
        <mxCell id="z3WLd9BQnXG6RK3tEXam-117" value="" style="edgeStyle=orthogonalEdgeStyle;endArrow=ERzeroToMany;startArrow=ERone;endFill=1;startFill=0;" edge="1" parent="1" source="C-vyLk0tnHw3VtMMgP7b-14" target="z3WLd9BQnXG6RK3tEXam-107">
          <mxGeometry width="100" height="100" relative="1" as="geometry">
            <mxPoint x="440" y="370" as="sourcePoint" />
            <mxPoint x="880" y="420" as="targetPoint" />
          </mxGeometry>
        </mxCell>
        <mxCell id="z3WLd9BQnXG6RK3tEXam-103" value="ContractCar" style="shape=table;startSize=30;container=1;collapsible=1;childLayout=tableLayout;fixedRows=1;rowLines=0;fontStyle=1;align=center;resizeLast=1;html=1;" vertex="1" parent="1">
          <mxGeometry x="740" y="490" width="270" height="180" as="geometry" />
        </mxCell>
        <mxCell id="z3WLd9BQnXG6RK3tEXam-104" value="" style="shape=tableRow;horizontal=0;startSize=0;swimlaneHead=0;swimlaneBody=0;fillColor=none;collapsible=0;dropTarget=0;points=[[0,0.5],[1,0.5]];portConstraint=eastwest;top=0;left=0;right=0;bottom=1;" vertex="1" parent="z3WLd9BQnXG6RK3tEXam-103">
          <mxGeometry y="30" width="270" height="30" as="geometry" />
        </mxCell>
        <mxCell id="z3WLd9BQnXG6RK3tEXam-105" value="PK" style="shape=partialRectangle;connectable=0;fillColor=none;top=0;left=0;bottom=0;right=0;fontStyle=1;overflow=hidden;whiteSpace=wrap;html=1;" vertex="1" parent="z3WLd9BQnXG6RK3tEXam-104">
          <mxGeometry width="30" height="30" as="geometry">
            <mxRectangle width="30" height="30" as="alternateBounds" />
          </mxGeometry>
        </mxCell>
        <mxCell id="z3WLd9BQnXG6RK3tEXam-106" value="id int NOT NULL auto increment" style="shape=partialRectangle;connectable=0;fillColor=none;top=0;left=0;bottom=0;right=0;align=left;spacingLeft=6;fontStyle=5;overflow=hidden;whiteSpace=wrap;html=1;" vertex="1" parent="z3WLd9BQnXG6RK3tEXam-104">
          <mxGeometry x="30" width="240" height="30" as="geometry">
            <mxRectangle width="240" height="30" as="alternateBounds" />
          </mxGeometry>
        </mxCell>
        <mxCell id="z3WLd9BQnXG6RK3tEXam-110" value="" style="shape=tableRow;horizontal=0;startSize=0;swimlaneHead=0;swimlaneBody=0;fillColor=none;collapsible=0;dropTarget=0;points=[[0,0.5],[1,0.5]];portConstraint=eastwest;top=0;left=0;right=0;bottom=0;" vertex="1" parent="z3WLd9BQnXG6RK3tEXam-103">
          <mxGeometry y="60" width="270" height="30" as="geometry" />
        </mxCell>
        <mxCell id="z3WLd9BQnXG6RK3tEXam-111" value="FK2" style="shape=partialRectangle;connectable=0;fillColor=none;top=0;left=0;bottom=0;right=0;editable=1;overflow=hidden;whiteSpace=wrap;html=1;" vertex="1" parent="z3WLd9BQnXG6RK3tEXam-110">
          <mxGeometry width="30" height="30" as="geometry">
            <mxRectangle width="30" height="30" as="alternateBounds" />
          </mxGeometry>
        </mxCell>
        <mxCell id="z3WLd9BQnXG6RK3tEXam-112" value="car_id int NOT NULL" style="shape=partialRectangle;connectable=0;fillColor=none;top=0;left=0;bottom=0;right=0;align=left;spacingLeft=6;overflow=hidden;whiteSpace=wrap;html=1;" vertex="1" parent="z3WLd9BQnXG6RK3tEXam-110">
          <mxGeometry x="30" width="240" height="30" as="geometry">
            <mxRectangle width="240" height="30" as="alternateBounds" />
          </mxGeometry>
        </mxCell>
        <mxCell id="z3WLd9BQnXG6RK3tEXam-107" value="" style="shape=tableRow;horizontal=0;startSize=0;swimlaneHead=0;swimlaneBody=0;fillColor=none;collapsible=0;dropTarget=0;points=[[0,0.5],[1,0.5]];portConstraint=eastwest;top=0;left=0;right=0;bottom=0;" vertex="1" parent="z3WLd9BQnXG6RK3tEXam-103">
          <mxGeometry y="90" width="270" height="30" as="geometry" />
        </mxCell>
        <mxCell id="z3WLd9BQnXG6RK3tEXam-108" value="FK1" style="shape=partialRectangle;connectable=0;fillColor=none;top=0;left=0;bottom=0;right=0;editable=1;overflow=hidden;whiteSpace=wrap;html=1;" vertex="1" parent="z3WLd9BQnXG6RK3tEXam-107">
          <mxGeometry width="30" height="30" as="geometry">
            <mxRectangle width="30" height="30" as="alternateBounds" />
          </mxGeometry>
        </mxCell>
        <mxCell id="z3WLd9BQnXG6RK3tEXam-109" value="contact_id int NOT NULL" style="shape=partialRectangle;connectable=0;fillColor=none;top=0;left=0;bottom=0;right=0;align=left;spacingLeft=6;overflow=hidden;whiteSpace=wrap;html=1;" vertex="1" parent="z3WLd9BQnXG6RK3tEXam-107">
          <mxGeometry x="30" width="240" height="30" as="geometry">
            <mxRectangle width="240" height="30" as="alternateBounds" />
          </mxGeometry>
        </mxCell>
        <mxCell id="z3WLd9BQnXG6RK3tEXam-92" value="" style="shape=tableRow;horizontal=0;startSize=0;swimlaneHead=0;swimlaneBody=0;fillColor=none;collapsible=0;dropTarget=0;points=[[0,0.5],[1,0.5]];portConstraint=eastwest;top=0;left=0;right=0;bottom=0;" vertex="1" parent="z3WLd9BQnXG6RK3tEXam-103">
          <mxGeometry y="120" width="270" height="30" as="geometry" />
        </mxCell>
        <mxCell id="z3WLd9BQnXG6RK3tEXam-93" value="1" style="shape=partialRectangle;connectable=0;fillColor=none;top=0;left=0;bottom=0;right=0;editable=1;overflow=hidden;" vertex="1" parent="z3WLd9BQnXG6RK3tEXam-92">
          <mxGeometry width="30" height="30" as="geometry">
            <mxRectangle width="30" height="30" as="alternateBounds" />
          </mxGeometry>
        </mxCell>
        <mxCell id="z3WLd9BQnXG6RK3tEXam-94" value="individual_price decimal" style="shape=partialRectangle;connectable=0;fillColor=none;top=0;left=0;bottom=0;right=0;align=left;spacingLeft=6;overflow=hidden;" vertex="1" parent="z3WLd9BQnXG6RK3tEXam-92">
          <mxGeometry x="30" width="240" height="30" as="geometry">
            <mxRectangle width="240" height="30" as="alternateBounds" />
          </mxGeometry>
        </mxCell>
        <mxCell id="z3WLd9BQnXG6RK3tEXam-113" value="" style="shape=tableRow;horizontal=0;startSize=0;swimlaneHead=0;swimlaneBody=0;fillColor=none;collapsible=0;dropTarget=0;points=[[0,0.5],[1,0.5]];portConstraint=eastwest;top=0;left=0;right=0;bottom=0;" vertex="1" parent="z3WLd9BQnXG6RK3tEXam-103">
          <mxGeometry y="150" width="270" height="30" as="geometry" />
        </mxCell>
        <mxCell id="z3WLd9BQnXG6RK3tEXam-114" value="2" style="shape=partialRectangle;connectable=0;fillColor=none;top=0;left=0;bottom=0;right=0;editable=1;overflow=hidden;whiteSpace=wrap;html=1;" vertex="1" parent="z3WLd9BQnXG6RK3tEXam-113">
          <mxGeometry width="30" height="30" as="geometry">
            <mxRectangle width="30" height="30" as="alternateBounds" />
          </mxGeometry>
        </mxCell>
        <mxCell id="z3WLd9BQnXG6RK3tEXam-115" value="notes text NOT NULL" style="shape=partialRectangle;connectable=0;fillColor=none;top=0;left=0;bottom=0;right=0;align=left;spacingLeft=6;overflow=hidden;whiteSpace=wrap;html=1;" vertex="1" parent="z3WLd9BQnXG6RK3tEXam-113">
          <mxGeometry x="30" width="240" height="30" as="geometry">
            <mxRectangle width="240" height="30" as="alternateBounds" />
          </mxGeometry>
        </mxCell>
      </root>
    </mxGraphModel>
  </diagram>
</mxfile>
